<mxfile host="app.diagrams.net" modified="2024-06-25T01:53:53.230Z" agent="Mozilla/5.0 (Windows NT 10.0; Win64; x64) AppleWebKit/537.36 (KHTML, like Gecko) Chrome/124.0.0.0 Safari/537.36 Edg/124.0.0.0" version="24.3.1" etag="P71sxi2uAn19w7VpU496" type="github">
  <diagram name="Page-1" id="7F6Te3k2awPu5lroTuEY">
    <mxGraphModel>
      <root>
        <mxCell id="0" />
        <mxCell id="1" parent="0" />
      </root>
    </mxGraphModel>
  </diagram>
</mxfile>
